<?xml version="1.0" standalone="no"?>
<!DOCTYPE svg PUBLIC "-//W3C//DTD SVG 20010904//EN"
 "http://www.w3.org/TR/2001/REC-SVG-20010904/DTD/svg10.dtd">
<svg version="1.0" xmlns="http://www.w3.org/2000/svg"
 width="512.000000pt" height="512.000000pt" viewBox="0 0 512.000000 512.000000"
 preserveAspectRatio="xMidYMid meet">

<g transform="translate(0.000000,512.000000) scale(0.100000,-0.100000)"
fill="#000000" stroke="none">
<path d="M205 4632 c-65 -22 -109 -54 -146 -105 -61 -84 -59 -52 -59 -1070 l0
-929 112 -241 c100 -215 119 -248 165 -294 93 -92 101 -93 543 -93 l379 0 20
26 c36 46 22 93 -33 114 -16 6 -116 10 -237 10 l-209 0 0 75 0 75 1820 0 1820
0 0 -75 0 -75 -1454 0 c-982 0 -1464 -3 -1482 -10 -55 -21 -69 -68 -33 -114
l20 -26 1624 0 c1623 0 1624 0 1680 21 37 14 74 38 108 72 46 46 65 79 165
294 l112 242 -2 948 -3 948 -28 57 c-32 64 -80 111 -146 142 -43 20 -66 21
-341 24 -162 2 -304 1 -316 -2 -13 -4 -30 -13 -38 -22 -21 -20 -21 -78 0 -98
8 -9 16 -17 17 -18 1 -1 139 -4 307 -8 295 -5 306 -6 336 -27 67 -48 64 1 64
-962 l0 -871 -2410 0 -2410 0 2 883 3 882 22 31 c49 69 -111 64 1966 64 l1874
0 27 21 c36 28 36 80 0 108 l-27 21 -1881 0 c-1759 -1 -1884 -2 -1931 -18z
m4725 -2150 c0 -13 -142 -311 -167 -352 -33 -54 -88 -80 -167 -80 l-66 0 0 96
c0 111 -15 153 -65 184 -32 20 -45 20 -1905 20 -1860 0 -1873 0 -1905 -20 -50
-31 -65 -73 -65 -184 l0 -96 -66 0 c-79 0 -134 26 -167 80 -25 41 -167 339
-167 352 0 4 1066 8 2370 8 1304 0 2370 -4 2370 -8z"/>
<path d="M583 4224 c-34 -34 -26 -78 22 -117 32 -27 35 -33 35 -84 0 -55 0
-55 -27 -48 -65 16 -91 33 -98 64 -7 33 -47 71 -75 71 -10 0 -30 -10 -45 -22
-24 -19 -27 -26 -23 -69 4 -43 2 -51 -24 -75 -38 -37 -38 -84 -2 -113 35 -27
63 -26 103 3 31 23 33 24 84 8 29 -9 54 -17 56 -18 2 -2 -12 -23 -30 -48 -27
-39 -38 -46 -65 -46 -72 0 -116 -48 -95 -103 12 -31 39 -47 80 -47 22 0 31 -6
36 -22 11 -35 46 -68 72 -68 61 0 91 47 72 111 -11 36 -10 42 16 79 16 23 32
43 36 46 4 2 22 -16 39 -41 28 -41 30 -49 21 -77 -16 -47 -13 -66 14 -93 44
-45 110 -23 130 43 5 16 14 22 35 22 43 0 61 10 75 43 25 60 -14 107 -90 107
-29 0 -39 7 -65 46 -18 25 -30 47 -28 48 1 2 26 10 54 18 48 14 52 14 84 -9
44 -30 75 -29 105 2 33 32 32 70 -4 105 -25 26 -28 34 -23 78 4 44 2 51 -23
70 -15 12 -35 22 -45 22 -28 0 -68 -37 -80 -74 -9 -28 -19 -37 -57 -50 -26 -9
-50 -16 -55 -16 -4 0 -8 26 -8 58 0 53 2 59 29 75 40 24 57 67 39 104 -20 42
-61 52 -107 27 -36 -19 -38 -20 -66 -2 -41 25 -71 22 -102 -8z"/>
<path d="M4370 4118 c-99 -17 -189 -110 -204 -211 -14 -93 31 -195 109 -249
128 -88 312 -35 376 107 23 50 25 152 4 203 -18 43 -77 107 -118 129 -41 21
-114 30 -167 21z m121 -177 c61 -61 21 -172 -63 -174 -101 -3 -151 107 -80
178 37 37 103 35 143 -4z"/>
<path d="M2760 3920 c-27 -27 -26 -81 1 -106 20 -18 45 -19 463 -22 242 -2
456 0 474 3 38 7 72 40 72 71 0 12 -9 33 -21 48 l-20 26 -475 0 c-461 0 -475
-1 -494 -20z"/>
<path d="M1278 1744 c-65 -34 -42 -163 46 -262 53 -60 66 -84 66 -122 0 -38
-12 -60 -77 -143 -49 -61 -73 -122 -73 -181 0 -79 26 -134 115 -244 51 -64 48
-114 -12 -186 -32 -39 -29 -91 9 -119 34 -25 67 -17 108 26 70 75 97 190 66
284 -9 28 -40 78 -71 115 -86 103 -86 137 0 244 115 145 115 269 0 405 -35 41
-57 77 -61 99 -10 61 -15 70 -44 85 -35 18 -38 18 -72 -1z"/>
<path d="M2063 1750 c-41 -17 -53 -68 -33 -140 10 -38 48 -97 105 -168 57 -71
51 -104 -42 -224 -49 -62 -73 -123 -73 -182 0 -79 26 -134 115 -244 51 -63 48
-114 -11 -185 -33 -40 -32 -89 2 -116 40 -31 63 -26 114 27 76 79 100 189 63
284 -9 24 -41 74 -72 112 -52 64 -56 73 -56 120 0 47 4 56 57 120 63 76 88
135 88 208 0 67 -24 121 -92 206 -34 43 -58 83 -58 97 0 37 -19 72 -47 84 -28
13 -30 13 -60 1z"/>
<path d="M2843 1750 c-76 -31 -52 -156 56 -288 74 -91 71 -126 -16 -229 -73
-85 -99 -182 -73 -273 10 -38 48 -97 105 -168 51 -63 48 -114 -11 -185 -33
-40 -32 -89 2 -116 40 -32 63 -26 115 28 59 61 84 130 76 211 -6 68 -28 114
-97 200 -49 61 -52 67 -48 111 4 39 14 58 61 115 69 82 92 144 84 224 -6 68
-28 114 -96 198 -29 37 -51 73 -51 87 0 37 -19 72 -47 84 -28 13 -30 13 -60 1z"/>
<path d="M3623 1750 c-76 -31 -52 -156 56 -288 73 -90 71 -128 -12 -222 -57
-66 -79 -115 -85 -191 -6 -82 19 -141 97 -237 65 -80 67 -113 15 -189 -44 -64
-46 -98 -10 -130 40 -34 64 -29 116 25 80 83 102 211 52 308 -11 22 -44 68
-72 104 -49 60 -52 67 -48 111 4 38 14 58 58 111 62 75 89 135 89 198 1 83
-23 136 -114 248 -19 24 -35 54 -35 67 0 37 -20 72 -47 84 -28 13 -30 13 -60
1z"/>
</g>
</svg>
