<?xml version="1.0" standalone="no"?>
<!DOCTYPE svg PUBLIC "-//W3C//DTD SVG 20010904//EN"
 "http://www.w3.org/TR/2001/REC-SVG-20010904/DTD/svg10.dtd">
<svg version="1.0" xmlns="http://www.w3.org/2000/svg"
 width="1024.000000pt" height="1024.000000pt" viewBox="0 0 1024.000000 1024.000000"
 preserveAspectRatio="xMidYMid meet">

<g transform="translate(0.000000,1024.000000) scale(0.100000,-0.100000)"
fill="#000000" stroke="none">
<path d="M842 8938 c-9 -9 -12 -820 -12 -3589 0 -3252 1 -3577 16 -3583 9 -3
1408 -6 3109 -6 2799 0 3095 1 3109 16 14 13 16 61 16 369 0 402 10 495 75
691 205 617 678 994 1318 1050 l77 6 0 -1054 c0 -806 3 -1057 12 -1066 9 -9
114 -12 409 -12 219 0 404 3 413 6 15 6 16 331 16 3583 0 2769 -3 3580 -12
3589 -17 17 -8529 17 -8546 0z m8478 -3583 l0 -3515 -345 0 -345 0 0 223 0
222 103 -3 c80 -3 106 0 115 11 9 11 11 743 10 3078 l-3 3064 -3730 0 -3730 0
-3 -1659 c-1 -1218 1 -1662 9 -1672 10 -12 190 -14 1060 -14 l1049 0 0 -580 0
-580 -68 0 -69 0 5 365 c4 284 2 368 -8 380 -11 13 -128 15 -984 15 -743 0
-975 -3 -984 -12 -9 -9 -12 -287 -12 -1189 0 -1057 2 -1179 16 -1193 14 -14
116 -16 978 -16 735 0 965 3 974 12 9 9 12 72 12 220 l0 208 70 0 70 0 0 -201
c0 -119 4 -208 10 -220 11 -19 41 -19 1745 -19 l1735 0 0 -220 0 -220 -3045 0
-3045 0 0 3515 0 3515 4205 0 4205 0 0 -3515z m-530 5 l-1 -3000 -79 0 -80 0
0 799 c0 776 -1 800 -19 806 -25 8 -259 -12 -369 -31 -343 -60 -676 -274 -909
-584 -191 -254 -310 -571 -331 -878 l-7 -107 -1702 -3 -1703 -2 0 180 0 180
543 2 542 3 -1 110 c-5 435 -326 864 -764 1020 -82 29 -244 65 -294 65 l-31 0
3 611 c2 457 0 614 -9 625 -10 12 -167 14 -1060 14 l-1049 0 0 1598 0 1597
3660 -3 3660 -2 0 -3000z m-5494 -1119 c-5 -294 -4 -370 6 -378 7 -6 87 -13
178 -16 254 -9 419 -57 615 -177 130 -79 298 -251 371 -379 63 -112 120 -293
133 -423 l7 -68 -651 -2 -650 -3 -6 -205 c-3 -113 -7 -211 -8 -217 -1 -10
-190 -13 -911 -13 l-910 0 0 1125 0 1125 916 0 917 0 -7 -369z"/>
</g>
</svg>
