<?xml version="1.0" standalone="no"?>
<!DOCTYPE svg PUBLIC "-//W3C//DTD SVG 20010904//EN"
 "http://www.w3.org/TR/2001/REC-SVG-20010904/DTD/svg10.dtd">
<svg version="1.0" xmlns="http://www.w3.org/2000/svg"
 width="512.000000pt" height="512.000000pt" viewBox="0 0 512.000000 512.000000"
 preserveAspectRatio="xMidYMid meet">

<g transform="translate(0.000000,512.000000) scale(0.100000,-0.100000)"
fill="#000000" stroke="none">
<path d="M165 4387 c-53 -14 -136 -98 -153 -153 -17 -58 -18 -2968 0 -3025 15
-51 69 -114 122 -142 41 -22 42 -22 689 -25 356 -1 647 -5 647 -8 0 -2 -18
-40 -40 -84 l-40 -80 -146 0 c-83 0 -154 -5 -165 -11 -48 -25 -44 -105 7 -128
36 -16 2912 -16 2948 0 51 23 55 103 7 128 -11 6 -82 11 -165 11 l-146 0 -40
80 c-22 44 -40 82 -40 84 0 3 291 7 648 8 646 3 647 3 688 25 53 28 107 91
122 142 18 57 17 2967 0 3025 -18 60 -100 139 -160 154 -63 16 -4723 15 -4783
-1z m4777 -165 l23 -23 3 -1344 2 -1345 -137 0 c-127 0 -138 -2 -160 -22 -29
-27 -31 -80 -3 -108 18 -18 33 -20 161 -20 l142 0 -6 -56 c-4 -39 -13 -64 -28
-80 l-22 -24 -1418 0 c-957 0 -1427 -3 -1445 -10 -32 -12 -53 -37 -54 -62 0
-16 -11 -18 -78 -18 l-78 0 -12 34 c-9 24 -22 38 -44 45 -21 8 -275 11 -808
11 l-777 0 -22 24 c-15 16 -24 41 -28 80 l-6 56 2143 0 2144 0 23 22 c29 27
30 67 2 102 l-20 26 -2145 0 -2144 0 0 1333 c0 1048 3 1337 13 1357 7 13 24
30 37 37 20 10 502 12 2372 10 l2347 -2 23 -23z"/>
<path d="M2671 2936 c-888 -888 -984 -987 -984 -1016 0 -41 32 -73 73 -73 29
0 128 96 1007 974 536 536 979 985 984 998 19 47 -24 101 -79 101 -9 0 -460
-443 -1001 -984z"/>
<path d="M2357 3183 c-318 -318 -583 -589 -588 -601 -20 -51 37 -109 90 -91
15 5 285 268 600 583 523 523 574 577 574 607 0 37 -40 79 -76 79 -15 0 -191
-169 -600 -577z"/>
</g>
</svg>
